<svg width="331" height="72" viewBox="0 0 331 72" fill="none" xmlns="http://www.w3.org/2000/svg">
<path d="M64.3452 1.14405e-06C63.843 1.14405e-06 63.4365 0.406451 63.4365 0.908673V64.789L44.5273 0.651721C44.4128 0.266294 44.0577 1.14405e-06 43.656 1.14405e-06H0.911007C0.406448 1.14405e-06 0 0.406451 0 0.908673V3.67673V5.39597V5.49408H4.08085H5.58985H5.90053H7.28339H26.7509C35.1509 5.49408 41.9858 12.329 41.9858 20.7289C41.9858 29.1242 35.1556 35.9568 26.7603 35.9615H9.0073C8.50507 35.9615 8.09863 36.3679 8.09863 36.8701C8.09863 37.3724 8.50507 37.7811 9.0073 37.7811H26.7486C26.7509 37.7811 26.7579 37.7811 26.7603 37.7811H32.0722C41.0047 37.7811 48.2741 45.0482 48.2741 53.9807C48.2741 62.9133 41.0047 70.1803 32.0722 70.1803C31.5699 70.1803 31.1635 70.5891 31.1635 71.0913C31.1635 71.5936 31.5699 72 32.0722 72C42.0091 72 50.0914 63.9177 50.0914 53.9807C50.0914 44.7375 43.0907 37.1037 34.1137 36.0853C39.8367 33.3312 43.8031 27.4914 43.8031 20.7289C43.8031 11.3245 36.1553 3.67673 26.7509 3.67673H5.58985H4.98952H1.81968V1.81968H42.9739L63.4739 71.3483C63.5884 71.7384 63.9481 72 64.3452 72C64.3872 72 64.4316 71.9977 64.4737 71.9907C64.9222 71.9276 65.2539 71.5422 65.2539 71.0913V0.908673C65.2539 0.406451 64.8474 1.14405e-06 64.3452 1.14405e-06Z" fill="white"/>
<path d="M77.4882 48.5664H78.6538L78.0722 47.333L77.4882 48.5664ZM79.4457 49.0686H76.6963L78.0745 46.1557L79.4457 49.0686ZM80.3567 51.0051H80.4221L78.0745 45.9689L75.6966 51.0051H75.7783L76.6706 49.12H79.4551L80.3567 51.0051ZM81.2117 51.5073H80.039L79.1397 49.6222H76.9883L76.096 51.5073H74.9023L77.8456 45.2774H78.3058L81.2117 51.5073Z" fill="#ACA29C"/>
<path d="M90.4789 50.4632H90.89C91.6515 50.4632 92.1818 50.4188 92.4598 50.3277C92.8405 50.2062 93.1278 49.989 93.3451 49.669C93.5623 49.3489 93.6721 48.9472 93.6721 48.473C93.6721 47.9754 93.553 47.5479 93.3147 47.1999C93.0788 46.8518 92.7564 46.6206 92.3313 46.4921C91.9972 46.3893 91.4273 46.3403 90.6331 46.3403H90.4789V50.4632ZM90.89 50.9654H89.9767V45.8381H90.6331C91.488 45.8381 92.0907 45.8941 92.4784 46.0109C93.0087 46.1721 93.4292 46.4758 93.7305 46.9149C94.0248 47.3494 94.1743 47.8726 94.1743 48.473C94.1743 49.0476 94.0365 49.5452 93.7609 49.9493C93.4852 50.3604 93.0975 50.6477 92.6139 50.8065C92.2799 50.914 91.7169 50.9654 90.89 50.9654ZM89.93 51.0051H91.502C92.1701 51.0051 92.691 50.9093 93.0484 50.7201C93.3988 50.5379 93.6908 50.2459 93.9127 49.8535C94.1393 49.4587 94.2514 48.9915 94.2514 48.4636C94.2514 47.8516 94.1089 47.3214 93.8239 46.8845C93.5389 46.4477 93.1559 46.1487 92.649 45.9712C92.2892 45.8451 91.6912 45.7797 90.8667 45.7797H89.93V51.0051ZM91.502 51.5073H89.4277V45.2774H90.8667C91.7613 45.2774 92.399 45.3498 92.8148 45.497C93.4222 45.7096 93.901 46.0833 94.2444 46.6089C94.5831 47.1298 94.7536 47.7535 94.7536 48.4636C94.7536 49.0803 94.6181 49.6316 94.3495 50.1034C94.0785 50.58 93.7188 50.9374 93.282 51.1663C92.8475 51.3952 92.2635 51.5073 91.502 51.5073Z" fill="#ACA29C"/>
<path d="M103.534 45.7787L105.674 50.7659L107.844 45.7787H107.769L105.674 50.586L103.611 45.7787H103.534ZM105.9 51.5063H105.445L102.772 45.2765H103.943L105.676 49.3199L107.44 45.2765H108.61L105.9 51.5063Z" fill="#ACA29C"/>
<path d="M119.914 46.1918C119.536 46.1918 119.174 46.2923 118.835 46.4885C118.491 46.6894 118.23 46.951 118.038 47.2874C117.847 47.6214 117.751 48.0022 117.751 48.4156C117.751 49.0323 117.956 49.5369 118.384 49.9597C118.811 50.3848 119.311 50.5904 119.914 50.5904C120.311 50.5904 120.685 50.4946 121.024 50.3007C121.362 50.1092 121.626 49.8429 121.815 49.5112C122.005 49.1771 122.1 48.7987 122.1 48.3876C122.1 47.9812 122.005 47.6074 121.815 47.2804C121.629 46.9533 121.358 46.6871 121.014 46.4885C120.668 46.2923 120.299 46.1918 119.914 46.1918ZM119.914 51.0926C119.183 51.0926 118.547 50.8333 118.031 50.3171C117.51 49.8008 117.249 49.1608 117.249 48.4156C117.249 47.9134 117.368 47.4509 117.601 47.0398C117.835 46.6287 118.164 46.297 118.583 46.054C119.423 45.5658 120.43 45.5752 121.264 46.054C121.687 46.297 122.019 46.624 122.25 47.0304C122.483 47.4345 122.603 47.8901 122.603 48.3876C122.603 48.8875 122.483 49.3477 122.252 49.7588C122.019 50.1699 121.689 50.4993 121.273 50.7375C120.858 50.9735 120.4 51.0926 119.914 51.0926ZM119.888 45.6336C119.395 45.6336 118.947 45.755 118.522 46.0003C118.104 46.2409 117.767 46.5819 117.527 47.0094C117.284 47.4392 117.16 47.9111 117.16 48.418C117.16 49.1795 117.422 49.8125 117.961 50.3498C118.501 50.887 119.148 51.1487 119.935 51.1487C120.711 51.1487 121.351 50.8847 121.89 50.3451C122.43 49.8055 122.691 49.1655 122.691 48.3899C122.691 47.6051 122.43 46.965 121.89 46.4301C121.348 45.8952 120.694 45.6336 119.888 45.6336ZM119.935 51.6509C119.022 51.6509 118.237 51.3332 117.606 50.7048C116.975 50.0788 116.658 49.308 116.658 48.418C116.658 47.8246 116.803 47.2664 117.088 46.7618C117.375 46.2549 117.774 45.8531 118.269 45.5658C118.767 45.2785 119.314 45.1313 119.888 45.1313C120.82 45.1313 121.612 45.449 122.243 46.0727C122.876 46.6987 123.196 47.4766 123.196 48.3899C123.196 49.2939 122.876 50.0718 122.245 50.7002C121.617 51.3309 120.839 51.6509 119.935 51.6509Z" fill="#ACA29C"/>
<path d="M134.967 45.6345C134.414 45.6345 133.911 45.7583 133.477 45.9989C133.045 46.2372 132.699 46.5759 132.452 47.001C132.202 47.4262 132.075 47.8934 132.075 48.3886C132.075 49.0637 132.29 49.6406 132.73 50.1545C133.302 50.8226 134.063 51.1496 135.054 51.1496C135.864 51.1496 136.488 50.916 136.965 50.4419C137.385 50.0214 137.621 49.4561 137.67 48.7623H135.712V48.8114H137.579L137.537 49.0987C137.453 49.692 137.179 50.1802 136.724 50.5493C136.271 50.9184 135.715 51.1053 135.07 51.1053C134.545 51.1053 134.054 50.9838 133.61 50.7432C133.164 50.4979 132.809 50.1592 132.557 49.7341C132.302 49.3113 132.174 48.8558 132.174 48.3769C132.174 47.9121 132.3 47.4682 132.545 47.0524C132.79 46.6366 133.141 46.3026 133.584 46.062C134.386 45.6275 135.28 45.5715 136.196 45.9639C136.535 46.1087 136.852 46.3096 137.147 46.5666L137.221 46.4941C136.899 46.2185 136.572 46.0129 136.243 45.8798C135.848 45.7163 135.418 45.6345 134.967 45.6345ZM135.054 51.6519C133.923 51.6519 133.012 51.2571 132.349 50.4816C131.833 49.8789 131.573 49.1758 131.573 48.3886C131.573 47.8046 131.723 47.251 132.017 46.7488C132.311 46.2419 132.723 45.8424 133.234 45.5598C134.152 45.0459 135.413 44.9968 136.434 45.4126C136.887 45.5995 137.336 45.8985 137.763 46.3073L137.957 46.4895L137.144 47.2603L136.974 47.0898C136.675 46.7978 136.348 46.5759 136 46.4264C135.217 46.0924 134.493 46.1391 133.823 46.5035C133.456 46.7044 133.178 46.966 132.975 47.3094C132.774 47.6481 132.676 47.9985 132.676 48.3769C132.676 48.7623 132.781 49.1314 132.986 49.4771C133.194 49.8252 133.484 50.1008 133.848 50.3017C134.218 50.5002 134.629 50.603 135.07 50.603C135.605 50.603 136.042 50.4582 136.406 50.1615C136.689 49.9303 136.878 49.6523 136.979 49.3159H135.21V48.2601H138.184L138.182 48.5124C138.177 49.4631 137.887 50.2293 137.32 50.7969C136.752 51.3622 135.99 51.6519 135.054 51.6519Z" fill="#ACA29C"/>
<path d="M148.681 48.5664H149.847L149.265 47.333L148.681 48.5664ZM150.639 49.0686H147.887L149.267 46.1557L150.639 49.0686ZM151.55 51.0051H151.615L149.267 45.9712L146.887 51.0051H146.971L147.864 49.12H150.648L151.55 51.0051ZM152.405 51.5073H151.232L150.333 49.6222H148.181L147.289 51.5073H146.095L149.038 45.2774H149.496L152.405 51.5073Z" fill="#ACA29C"/>
<path d="M161.672 50.4632H162.083C162.844 50.4632 163.372 50.4188 163.653 50.3277C164.031 50.2062 164.321 49.989 164.538 49.669C164.755 49.3489 164.865 48.9472 164.865 48.473C164.865 47.9754 164.743 47.5456 164.508 47.1999C164.272 46.8518 163.949 46.6229 163.524 46.4921C163.19 46.3893 162.618 46.3403 161.826 46.3403H161.672V50.4632ZM162.083 50.9654H161.17V45.8381H161.826C162.681 45.8381 163.284 45.8941 163.669 46.0109C164.202 46.1744 164.622 46.4781 164.923 46.9172C165.218 47.3471 165.367 47.8726 165.367 48.473C165.367 49.0499 165.227 49.5475 164.954 49.9516C164.678 50.3604 164.29 50.6477 163.807 50.8065C163.473 50.914 162.907 50.9654 162.083 50.9654ZM161.123 51.0051H162.695C163.363 51.0051 163.884 50.9093 164.241 50.7201C164.592 50.5379 164.884 50.2459 165.106 49.8535C165.332 49.4587 165.444 48.9915 165.444 48.4636C165.444 47.8516 165.302 47.3214 165.014 46.8845C164.732 46.4477 164.346 46.1487 163.842 45.9712C163.482 45.8451 162.884 45.7797 162.06 45.7797H161.123V51.0051ZM162.695 51.5073H160.621V45.2774H162.06C162.954 45.2774 163.592 45.3498 164.008 45.497C164.613 45.7096 165.094 46.0833 165.437 46.6089C165.776 47.1298 165.946 47.7535 165.946 48.4636C165.946 49.078 165.811 49.6292 165.542 50.1011C165.271 50.58 164.912 50.9374 164.475 51.1663C164.045 51.3929 163.445 51.5073 162.695 51.5073Z" fill="#ACA29C"/>
<path d="M177.533 46.1918C177.155 46.1918 176.793 46.2923 176.454 46.4885C176.115 46.6871 175.847 46.9557 175.657 47.2874C175.466 47.6214 175.37 48.0022 175.37 48.4156C175.37 49.0323 175.576 49.5369 176.003 49.9597C176.431 50.3848 176.93 50.5904 177.533 50.5904C177.93 50.5904 178.304 50.4946 178.643 50.3007C178.981 50.1092 179.245 49.8429 179.435 49.5112C179.624 49.1795 179.72 48.8011 179.72 48.3876C179.72 47.9788 179.624 47.6051 179.435 47.2804C179.248 46.9533 178.977 46.6871 178.633 46.4885C178.288 46.2923 177.919 46.1918 177.533 46.1918ZM177.533 51.0926C176.802 51.0926 176.167 50.8333 175.65 50.3171C175.129 49.8008 174.868 49.1608 174.868 48.4156C174.868 47.9134 174.987 47.4509 175.221 47.0398C175.454 46.6287 175.784 46.297 176.202 46.054C177.038 45.5658 178.049 45.5752 178.883 46.054C179.306 46.297 179.638 46.624 179.871 47.0304C180.103 47.4322 180.222 47.8901 180.222 48.3876C180.222 48.8898 180.103 49.35 179.871 49.7588C179.638 50.1699 179.308 50.4993 178.893 50.7375C178.477 50.9735 178.019 51.0926 177.533 51.0926ZM177.507 45.6336C177.015 45.6336 176.566 45.755 176.141 46.0003C175.718 46.2456 175.393 46.5749 175.146 47.0094C174.903 47.4392 174.779 47.9134 174.779 48.418C174.779 49.1795 175.041 49.8102 175.583 50.3498C176.122 50.887 176.767 51.1487 177.554 51.1487C178.33 51.1487 178.97 50.8847 179.509 50.3451C180.049 49.8055 180.311 49.1655 180.311 48.3899C180.311 47.6051 180.049 46.965 179.509 46.4301C178.97 45.8952 178.313 45.6336 177.507 45.6336ZM177.554 51.6509C176.638 51.6509 175.856 51.3332 175.228 50.7048C174.595 50.0765 174.277 49.308 174.277 48.418C174.277 47.8246 174.422 47.2687 174.707 46.7618C174.996 46.2549 175.393 45.8508 175.889 45.5658C176.386 45.2785 176.933 45.1313 177.507 45.1313C178.439 45.1313 179.231 45.449 179.862 46.0727C180.495 46.6987 180.815 47.4766 180.815 48.3899C180.815 49.2939 180.495 50.0718 179.864 50.7002C179.236 51.3309 178.458 51.6509 177.554 51.6509Z" fill="#ACA29C"/>
<path d="M189.438 50.2764C189.622 50.566 189.816 50.7786 190.015 50.9118C190.26 51.0706 190.524 51.1477 190.825 51.1477C191.213 51.1477 191.531 51.0215 191.799 50.7599C192.068 50.5006 192.199 50.204 192.199 49.8583C192.199 49.6153 192.119 49.3794 191.96 49.1341C191.795 48.8748 191.472 48.5688 191.003 48.2208C190.433 47.8003 190.295 47.6812 190.236 47.6275C190.073 47.4616 189.963 47.3144 189.898 47.1673C189.832 47.0201 189.8 46.8636 189.8 46.7024C189.8 46.4315 189.902 46.1909 190.096 46.004C190.437 45.6793 191.014 45.6326 191.463 45.8965C191.603 45.9806 191.755 46.1231 191.928 46.3263L191.998 46.275C191.813 46.0507 191.64 45.8942 191.479 45.8008C191.098 45.5859 190.636 45.5789 190.262 45.7821C190.085 45.8778 189.951 46.0063 189.853 46.1722C189.758 46.338 189.709 46.5202 189.709 46.7258C189.709 46.9874 189.793 47.2257 189.963 47.4523C190.033 47.5527 190.236 47.7559 190.804 48.1857C191.306 48.5642 191.645 48.8842 191.841 49.1598C192 49.3864 192.082 49.627 192.082 49.8699C192.082 50.0825 192.026 50.2881 191.914 50.4749C191.802 50.6665 191.64 50.8183 191.43 50.9304C191.227 51.0379 191.005 51.094 190.769 51.094C190.283 51.094 189.856 50.8066 189.494 50.2413L189.438 50.2764ZM190.825 51.6499C190.43 51.6499 190.064 51.5425 189.741 51.3322C189.426 51.1243 189.134 50.7809 188.875 50.3091L188.758 50.0989L189.678 49.5476L189.804 49.7765C190.096 50.3184 190.421 50.5917 190.769 50.5917C190.923 50.5917 191.061 50.5567 191.192 50.4866C191.323 50.4189 191.416 50.3324 191.479 50.2203C191.547 50.1082 191.577 49.9937 191.577 49.8699C191.577 49.7298 191.528 49.592 191.43 49.4495C191.267 49.2182 190.956 48.9286 190.503 48.5852C189.994 48.2021 189.692 47.9358 189.559 47.7489C189.325 47.4406 189.206 47.0949 189.206 46.7258C189.206 46.4315 189.279 46.1605 189.419 45.9199C189.564 45.6746 189.765 45.4807 190.022 45.3406C190.54 45.0556 191.199 45.0626 191.729 45.3639C191.998 45.5181 192.269 45.7844 192.554 46.1722L192.699 46.3731L191.837 47.0295L191.682 46.8286C191.439 46.5062 191.288 46.3777 191.204 46.3263C190.949 46.1768 190.624 46.1955 190.444 46.3684C190.346 46.4595 190.302 46.5669 190.302 46.7024C190.302 46.7935 190.321 46.8776 190.358 46.9641C190.395 47.0505 190.475 47.1533 190.589 47.2701C190.631 47.3098 190.792 47.4429 191.302 47.8167C191.827 48.2068 192.18 48.5478 192.383 48.8608C192.593 49.1855 192.701 49.5219 192.701 49.8583C192.701 50.3418 192.514 50.7669 192.15 51.122C191.787 51.4724 191.341 51.6499 190.825 51.6499Z" fill="#ACA29C"/>
<path d="M79.8057 35.0252C82.3191 35.0368 83.7651 33.6166 83.7627 31.1382C83.7651 27.4661 80.6069 26.8541 78.2336 26.8588L78.2289 26.6299C79.7239 26.6345 82.2701 26.1931 82.2817 23.0419C82.2701 20.8274 81.0203 19.5544 78.6984 19.5567H77.4043V35.0252H79.8057ZM78.7872 18.7695C82.221 18.7695 84.1084 20.4117 84.1178 22.8667C84.1084 24.9433 82.7863 26.1931 81.4034 26.5878C84.0103 26.9779 85.6034 28.8887 85.6011 31.3134C85.6011 34.0814 83.5431 35.9175 79.8921 35.9175H73.9238L73.9285 35.6722H74.2368C75.0895 35.6722 75.7809 34.9948 75.8066 34.1492V20.5331C75.8066 19.6899 75.0871 19.0124 74.2322 19.0124H73.9285L73.9238 18.7695H78.7872Z" fill="white"/>
<path d="M98.2925 29.2297L95.3399 21.367L92.2588 29.2297H98.2925ZM102.149 34.1305C102.644 35.2214 103.551 35.6722 104.3 35.6722H104.506V35.9175H98.9886V35.6745H99.2058C99.8365 35.6745 100.493 35.1163 100.136 34.1375L98.5681 29.9656H91.9691L90.3293 34.1515C89.9836 35.1233 90.6353 35.6745 91.266 35.6745H91.4809V35.9175H86.5498V35.6722H86.7694C87.5169 35.6722 88.4209 35.2214 88.9161 34.1328L94.4709 20.9489C94.4709 20.9489 95.3796 18.9657 95.3796 18.4261H95.5992L102.149 34.1305Z" fill="white"/>
<path d="M112.31 18.7691C115.279 18.7691 117.099 20.5187 117.099 23.3732C117.099 25.7442 115.293 28.0451 112.936 28.0451C113.462 28.288 114.214 29.0986 114.688 29.769C114.688 29.769 116.802 32.7846 117.75 33.8194C118.736 34.8963 119.642 35.6601 121.081 35.6718V35.9171H119.738C117.458 35.9171 116.234 34.6907 115.463 33.7704C115.185 33.4387 112.424 29.4209 112.235 29.185C111.595 28.3791 110.883 27.5312 109.986 27.5312V27.3046C109.986 27.3046 110.544 27.3162 111.28 27.2976C112.553 27.2625 114.408 26.9589 115.104 24.7537C115.214 24.4104 115.274 23.824 115.26 23.2868C115.2 21.07 114.046 19.6521 112.221 19.5517C110.971 19.4839 109.488 19.5446 109.173 19.533V34.1325C109.187 34.9874 109.883 35.6742 110.74 35.6742H111.051L111.056 35.9194H105.702L105.706 35.6742H106.017C106.87 35.6742 107.563 34.9921 107.584 34.1441V20.5538C107.568 19.7012 106.872 19.0121 106.015 19.0121H105.706L105.702 18.7691H112.31Z" fill="white"/>
<path d="M128.156 18.7691C131.125 18.7691 132.944 20.5187 132.944 23.3732C132.944 25.7442 131.139 28.0451 128.782 28.0451C129.307 28.288 130.059 29.0986 130.534 29.769C130.534 29.769 132.648 32.7846 133.596 33.8194C134.582 34.8963 135.488 35.6601 136.927 35.6718V35.9171H135.584C133.304 35.9171 132.08 34.6907 131.309 33.7704C131.031 33.4387 128.27 29.4209 128.081 29.185C127.441 28.3791 126.728 27.5312 125.831 27.5312V27.3046C125.831 27.3046 126.39 27.3162 127.126 27.2976C128.399 27.2625 130.256 26.9589 130.949 24.7537C131.059 24.4104 131.12 23.824 131.106 23.2868C131.045 21.07 129.891 19.6521 128.067 19.5517C126.817 19.4839 125.336 19.5446 125.019 19.533V34.1325C125.033 34.9874 125.729 35.6742 126.586 35.6742H126.897L126.901 35.9194H121.547L121.552 35.6742H121.863C122.715 35.6742 123.409 34.9921 123.43 34.1441V20.5538C123.414 19.7012 122.718 19.0121 121.86 19.0121H121.552L121.547 18.7691H128.156Z" fill="white"/>
<path d="M153.003 27.3436C153.003 22.4335 150.233 19.1608 146.077 19.1608C141.919 19.1608 139.149 22.4335 139.149 27.3436C139.149 32.2537 141.919 35.5286 146.077 35.5286C150.233 35.5286 153.003 32.2537 153.003 27.3436ZM154.881 27.3436C154.881 32.6928 151.286 36.2598 146.077 36.2598C140.868 36.2598 137.271 32.6928 137.271 27.3436C137.271 21.9943 140.868 18.4274 146.077 18.4274C151.286 18.4274 154.881 21.9943 154.881 27.3436Z" fill="white"/>
<path d="M166.354 35.5281C170.51 35.5281 173.283 32.2555 173.283 27.343C173.283 22.4329 170.51 19.1603 166.354 19.1603C162.173 19.1603 159.386 22.4329 159.386 27.343C159.386 32.2555 162.199 35.5281 166.354 35.5281ZM188.606 38.0976C188.034 39.6417 183.367 43.7085 176.368 40.6695C173.374 39.373 169.37 36.8479 166.076 36.2616C161.017 36.1378 157.548 32.5989 157.548 27.343C157.548 21.9938 161.145 18.4268 166.354 18.4268C171.54 18.4268 175.119 21.9938 175.119 27.343C175.119 31.9355 172.446 35.2151 168.44 36.0397C170.395 36.6283 173.243 37.7542 176.56 39.1768C180.239 40.7185 185.49 40.8166 188.513 37.9761L188.606 38.0976Z" fill="white"/>
<path d="M194.218 18.7684V19.0137H193.818C193.129 19.0137 192.566 19.4949 192.524 20.17V29.8594C192.524 33.6996 189.884 36.2598 185.92 36.2598C181.844 36.2598 179.128 33.716 179.128 29.9014V20.226C179.114 19.5229 178.541 19.0137 177.831 19.0137H177.432V18.7684H182.409V19.0137H182.01C181.314 19.0137 180.749 19.5042 180.718 20.191V29.5417C180.718 33.1086 182.8 35.4889 185.92 35.4889C189.193 35.4889 191.375 33.2371 191.379 29.857V20.1933C191.349 19.5066 190.781 19.0137 190.085 19.0137H189.686V18.7684H194.218Z" fill="white"/>
<path d="M206.744 35.9185H196.59L196.592 35.6732H196.903C197.76 35.6732 198.456 34.9864 198.473 34.1338V20.415C198.389 19.6278 197.723 19.0134 196.91 19.0134H196.602L196.597 18.7681H203.756C204.812 18.7588 206.223 18.5159 206.676 18.3243V19.0414V19.4502V21.4171L206.429 21.4124V20.9779C206.429 20.2001 205.824 19.5647 205.058 19.518H200.063V27.0934H204.203C204.859 27.0793 205.387 26.5444 205.387 25.8857V25.5236L205.628 25.5213V29.3989L205.387 29.3966V29.0345C205.387 28.3828 204.873 27.8525 204.228 27.8292H200.063V35.1686H203.577C206.172 35.1686 207.169 33.8255 207.926 31.9614H208.171L206.744 35.9185Z" fill="white"/>
<path d="M222.056 31.9604L220.629 35.9175H210.472L210.477 35.6722H210.788C211.642 35.6722 212.339 34.9854 212.355 34.1328V20.5541C212.339 19.7015 211.642 19.0148 210.785 19.0148H210.477L210.472 18.7695H215.831L215.826 19.0148H215.518C214.66 19.0148 213.964 19.7015 213.948 20.5541V35.1677H217.461C220.056 35.1677 221.054 33.8245 221.811 31.9604H222.056Z" fill="white"/>
<path d="M239.724 27.3436C239.724 22.4335 236.954 19.1608 232.798 19.1608C228.64 19.1608 225.87 22.4335 225.87 27.3436C225.87 32.2537 228.64 35.5286 232.798 35.5286C236.954 35.5286 239.724 32.2537 239.724 27.3436ZM241.602 27.3436C241.602 32.6928 238.007 36.2598 232.798 36.2598C227.589 36.2598 223.992 32.6928 223.992 27.3436C223.992 21.9943 227.589 18.4274 232.798 18.4274C238.007 18.4274 241.602 21.9943 241.602 27.3436Z" fill="white"/>
<path d="M267.298 18.7657V19.0133H267.083C266.336 19.0133 265.434 19.4525 264.937 20.5316L259.048 33.7389C259.048 33.7389 258.139 35.7221 258.139 36.2617H257.919L251.033 20.5503C250.54 19.4571 249.634 19.0133 248.872 19.0133H248.676V18.7657H254.194V19.011H253.979C253.346 19.011 252.696 19.5599 253.051 20.5387L258.186 33.3745L263.514 20.541C263.871 19.5599 263.215 19.011 262.584 19.011H262.367V18.7657H267.298Z" fill="white"/>
<path d="M273.873 35.9175H268.512L268.516 35.6722H268.827C269.684 35.6722 270.38 34.9854 270.397 34.1328V20.5425C270.376 19.6945 269.682 19.0124 268.827 19.0124H268.516L268.514 18.7672H273.873L273.868 19.0124H273.56C272.707 19.0124 272.013 19.6899 271.99 20.5378V34.1328C272.006 34.9854 272.702 35.6722 273.56 35.6722H273.868L273.873 35.9175Z" fill="white"/>
<path d="M286.821 29.2297L283.868 21.367L280.787 29.2297H286.821ZM290.677 34.1305C291.173 35.2214 292.079 35.6722 292.829 35.6722H293.034V35.9175H287.517V35.6745H287.734C288.365 35.6745 289.021 35.1163 288.664 34.1375L287.096 29.9656H280.497L278.858 34.1515C278.512 35.1233 279.164 35.6745 279.794 35.6745H280.009V35.9175H275.078V35.6722H275.298C276.045 35.6722 276.949 35.2214 277.444 34.1328L282.999 20.9489C282.999 20.9489 283.908 18.9657 283.908 18.4261H284.127L290.677 34.1305Z" fill="white"/>
<path d="M312.265 18.7684L312.263 19.0137H311.81C310.99 19.0137 310.324 19.6654 310.298 20.4783V33.1343C310.298 34.7134 310.52 36.2598 310.52 36.2598H310.298L296.939 22.0107V34.2088C296.965 35.0217 297.631 35.6735 298.45 35.6735H298.901L298.906 35.9187H293.86L293.863 35.6735H294.316C295.143 35.6735 295.811 35.0124 295.827 34.1901V21.4617C295.827 19.7892 295.603 18.4017 295.603 18.4017H295.844L309.184 32.6484V20.4993C309.168 19.6747 308.5 19.0137 307.673 19.0137H307.219L307.217 18.7684H312.265Z" fill="white"/>
<path d="M324.484 29.2297L321.532 21.367L318.451 29.2297H324.484ZM328.341 34.1305C328.836 35.2214 329.743 35.6722 330.492 35.6722H330.698V35.9175H325.18V35.6745H325.398C326.028 35.6745 326.685 35.1163 326.327 34.1375L324.76 29.9656H318.161L316.521 34.1515C316.175 35.1233 316.827 35.6745 317.458 35.6745H317.673V35.9175H312.742V35.6722H312.961C313.709 35.6722 314.613 35.2214 315.108 34.1328L320.663 20.9489C320.663 20.9489 321.571 18.9657 321.571 18.4261H321.791L328.341 34.1305Z" fill="white"/>
</svg>
