<svg width="258" height="56" viewBox="0 0 258 56" fill="none" xmlns="http://www.w3.org/2000/svg">
<path d="M50.0463 -1.55977e-06C49.6557 -1.55977e-06 49.3395 0.316126 49.3395 0.706743V50.3915L34.6323 0.506891C34.5433 0.207115 34.2671 -1.55977e-06 33.9546 -1.55977e-06H0.708561C0.316126 -1.55977e-06 0 0.316126 0 0.706743V2.85968V4.19686V4.27317H3.17399H4.34766H4.5893H5.66486H20.8063C27.3396 4.27317 32.6556 9.5892 32.6556 16.1225C32.6556 22.6522 27.3432 27.9664 20.8135 27.97H7.00568C6.61506 27.97 6.29893 28.2861 6.29893 28.6768C6.29893 29.0674 6.61506 29.3853 7.00568 29.3853H20.8045C20.8063 29.3853 20.8117 29.3853 20.8135 29.3853H24.945C31.8925 29.3853 37.5465 35.0375 37.5465 41.985C37.5465 48.9325 31.8925 54.5847 24.945 54.5847C24.5544 54.5847 24.2383 54.9026 24.2383 55.2933C24.2383 55.6839 24.5544 56 24.945 56C32.6738 56 38.96 49.7138 38.96 41.985C38.96 34.7958 33.515 28.8584 26.5329 28.0663C30.9841 25.9243 34.0691 21.3822 34.0691 16.1225C34.0691 8.80796 28.1208 2.85968 20.8063 2.85968H4.34766H3.88074H1.41531V1.4153H33.4241L49.3686 55.4931C49.4576 55.7965 49.7374 56 50.0463 56C50.079 56 50.1135 55.9982 50.1462 55.9927C50.495 55.9437 50.753 55.6439 50.753 55.2933V0.706743C50.753 0.316126 50.4369 -1.55977e-06 50.0463 -1.55977e-06Z" fill="#3C3835"/>
<path d="M60.2685 37.7737H61.1751L60.7227 36.8144L60.2685 37.7737ZM61.791 38.1643H59.6526L60.7245 35.8987L61.791 38.1643ZM62.4996 39.6704H62.5504L60.7245 35.7533L58.875 39.6704H58.9386L59.6326 38.2042H61.7983L62.4996 39.6704ZM63.1645 40.061H62.2525L61.553 38.5949H59.8797L59.1857 40.061H58.2573L60.5465 35.2156H60.9044L63.1645 40.061Z" fill="#78706B"/>
<path d="M70.3724 39.2489H70.6921C71.2844 39.2489 71.6968 39.2144 71.913 39.1435C72.2092 39.0491 72.4327 38.8801 72.6016 38.6312C72.7706 38.3823 72.856 38.0698 72.856 37.701C72.856 37.314 72.7633 36.9815 72.578 36.7108C72.3945 36.4401 72.1438 36.2602 71.8131 36.1603C71.5533 36.0804 71.11 36.0422 70.4923 36.0422H70.3724V39.2489ZM70.6921 39.6395H69.9818V35.6516H70.4923C71.1572 35.6516 71.626 35.6952 71.9276 35.786C72.34 35.9114 72.667 36.1476 72.9014 36.4892C73.1303 36.8271 73.2466 37.2341 73.2466 37.701C73.2466 38.1479 73.1394 38.5349 72.925 38.8492C72.7106 39.169 72.409 39.3924 72.033 39.516C71.7732 39.5996 71.3353 39.6395 70.6921 39.6395ZM69.9454 39.6704H71.1681C71.6878 39.6704 72.0929 39.5959 72.3709 39.4488C72.6434 39.3071 72.8705 39.08 73.0431 38.7747C73.2193 38.4677 73.3065 38.1043 73.3065 37.6937C73.3065 37.2177 73.1957 36.8053 72.9741 36.4655C72.7524 36.1258 72.4545 35.8932 72.0602 35.7552C71.7804 35.6571 71.3153 35.6062 70.674 35.6062H69.9454V39.6704ZM71.1681 40.061H69.5548V35.2156H70.674C71.3698 35.2156 71.8658 35.2719 72.1892 35.3863C72.6616 35.5517 73.034 35.8424 73.3011 36.2512C73.5645 36.6563 73.6972 37.1414 73.6972 37.6937C73.6972 38.1734 73.5918 38.6021 73.3829 38.9691C73.1721 39.3398 72.8923 39.6177 72.5526 39.7958C72.2146 39.9738 71.7604 40.061 71.1681 40.061Z" fill="#78706B"/>
<path d="M80.5264 35.6057L82.1906 39.4846L83.8784 35.6057H83.8203L82.1906 39.3447L80.5863 35.6057H80.5264ZM82.3668 40.0605H82.0125L79.9341 35.2151H80.8443L82.1924 38.36L83.5641 35.2151H84.4743L82.3668 40.0605Z" fill="#78706B"/>
<path d="M93.2666 35.9269C92.9723 35.9269 92.6907 36.0051 92.4272 36.1577C92.1602 36.3139 91.9567 36.5174 91.8077 36.779C91.6587 37.0388 91.5842 37.335 91.5842 37.6565C91.5842 38.1362 91.7441 38.5286 92.0766 38.8575C92.4091 39.1881 92.7979 39.348 93.2666 39.348C93.5755 39.348 93.8662 39.2735 94.1296 39.1227C94.393 38.9737 94.5983 38.7666 94.7455 38.5086C94.8927 38.2488 94.9671 37.9545 94.9671 37.6347C94.9671 37.3186 94.8927 37.0279 94.7455 36.7736C94.6001 36.5192 94.3894 36.3121 94.1223 36.1577C93.8534 36.0051 93.5664 35.9269 93.2666 35.9269ZM93.2666 39.7386C92.6979 39.7386 92.2038 39.537 91.8022 39.1354C91.3971 38.7339 91.1936 38.2361 91.1936 37.6565C91.1936 37.2659 91.2863 36.9062 91.4679 36.5864C91.6496 36.2667 91.9058 36.0087 92.231 35.8197C92.8851 35.44 93.6681 35.4473 94.3167 35.8197C94.6456 36.0087 94.9036 36.263 95.0834 36.5792C95.2651 36.8935 95.3578 37.2478 95.3578 37.6347C95.3578 38.0235 95.2651 38.3815 95.0852 38.7012C94.9036 39.021 94.6474 39.2772 94.324 39.4625C94.0006 39.646 93.6445 39.7386 93.2666 39.7386ZM93.2466 35.4927C92.8633 35.4927 92.5144 35.5872 92.1838 35.778C91.8586 35.9651 91.5969 36.2303 91.4098 36.5628C91.2209 36.8971 91.1246 37.2641 91.1246 37.6584C91.1246 38.2507 91.328 38.743 91.7477 39.1609C92.1674 39.5787 92.6707 39.7822 93.283 39.7822C93.8861 39.7822 94.3839 39.5769 94.8036 39.1572C95.2233 38.7376 95.4268 38.2397 95.4268 37.6366C95.4268 37.0261 95.2233 36.5283 94.8036 36.1122C94.3821 35.6962 93.8734 35.4927 93.2466 35.4927ZM93.283 40.1729C92.5726 40.1729 91.9621 39.9258 91.4716 39.437C90.981 38.9501 90.7339 38.3506 90.7339 37.6584C90.7339 37.1969 90.8466 36.7627 91.0682 36.3702C91.2917 35.976 91.6024 35.6635 91.9876 35.44C92.3745 35.2166 92.7997 35.1021 93.2466 35.1021C93.9715 35.1021 94.5874 35.3492 95.078 35.8343C95.5703 36.3212 95.8192 36.9262 95.8192 37.6366C95.8192 38.3397 95.5703 38.9447 95.0798 39.4334C94.5911 39.9239 93.9861 40.1729 93.283 40.1729Z" fill="#78706B"/>
<path d="M104.975 35.4932C104.544 35.4932 104.153 35.5895 103.816 35.7766C103.479 35.9619 103.211 36.2254 103.018 36.556C102.824 36.8867 102.725 37.2501 102.725 37.6352C102.725 38.1603 102.893 38.6091 103.234 39.0088C103.679 39.5284 104.272 39.7827 105.042 39.7827C105.672 39.7827 106.157 39.601 106.528 39.2322C106.855 38.9052 107.039 38.4655 107.077 37.9259H105.554V37.9641H107.006L106.973 38.1876C106.908 38.649 106.695 39.0287 106.341 39.3158C105.988 39.6029 105.556 39.7482 105.055 39.7482C104.646 39.7482 104.264 39.6537 103.919 39.4666C103.572 39.2758 103.296 39.0124 103.1 38.6817C102.902 38.3529 102.802 37.9986 102.802 37.6262C102.802 37.2646 102.9 36.9194 103.091 36.596C103.281 36.2726 103.554 36.0128 103.899 35.8257C104.522 35.4877 105.218 35.4441 105.93 35.7494C106.194 35.862 106.441 36.0183 106.67 36.2181L106.728 36.1618C106.477 35.9474 106.223 35.7875 105.967 35.684C105.66 35.5568 105.325 35.4932 104.975 35.4932ZM105.042 40.1733C104.163 40.1733 103.454 39.8663 102.938 39.2631C102.537 38.7944 102.335 38.2475 102.335 37.6352C102.335 37.181 102.451 36.7504 102.68 36.3598C102.909 35.9656 103.229 35.6549 103.627 35.4351C104.341 35.0354 105.322 34.9972 106.116 35.3206C106.468 35.4659 106.817 35.6985 107.149 36.0164L107.3 36.1582L106.668 36.7577L106.535 36.6251C106.303 36.398 106.048 36.2254 105.778 36.1091C105.169 35.8493 104.606 35.8856 104.084 36.1691C103.799 36.3253 103.583 36.5288 103.425 36.7959C103.269 37.0593 103.192 37.3318 103.192 37.6262C103.192 37.9259 103.274 38.213 103.434 38.4819C103.596 38.7526 103.821 38.967 104.104 39.1232C104.391 39.2776 104.711 39.3576 105.055 39.3576C105.471 39.3576 105.81 39.2449 106.094 39.0142C106.314 38.8343 106.461 38.6181 106.539 38.3565H105.164V37.5353H107.476L107.475 37.7315C107.471 38.471 107.246 39.0669 106.804 39.5084C106.363 39.9481 105.77 40.1733 105.042 40.1733Z" fill="#78706B"/>
<path d="M115.641 37.7737H116.547L116.095 36.8144L115.641 37.7737ZM117.163 38.1643H115.023L116.097 35.8987L117.163 38.1643ZM117.872 39.6704H117.923L116.097 35.7552L114.246 39.6704H114.311L115.005 38.2042H117.171L117.872 39.6704ZM118.537 40.061H117.625L116.925 38.5949H115.252L114.558 40.061H113.63L115.919 35.2156H116.275L118.537 40.061Z" fill="#78706B"/>
<path d="M125.745 39.2489H126.064C126.657 39.2489 127.067 39.2144 127.285 39.1435C127.58 39.0491 127.805 38.8801 127.974 38.6312C128.143 38.3823 128.228 38.0698 128.228 37.701C128.228 37.314 128.134 36.9797 127.95 36.7108C127.767 36.4401 127.516 36.2621 127.185 36.1603C126.926 36.0804 126.481 36.0422 125.865 36.0422H125.745V39.2489ZM126.064 39.6395H125.354V35.6516H125.865C126.53 35.6516 126.998 35.6952 127.298 35.786C127.712 35.9132 128.039 36.1494 128.274 36.491C128.503 36.8253 128.619 37.2341 128.619 37.701C128.619 38.1497 128.51 38.5367 128.297 38.851C128.083 39.169 127.781 39.3924 127.405 39.516C127.145 39.5996 126.706 39.6395 126.064 39.6395ZM125.318 39.6704H126.54C127.06 39.6704 127.465 39.5959 127.743 39.4488C128.016 39.3071 128.243 39.08 128.415 38.7747C128.592 38.4677 128.679 38.1043 128.679 37.6937C128.679 37.2177 128.568 36.8053 128.345 36.4655C128.125 36.1258 127.825 35.8932 127.433 35.7552C127.153 35.6571 126.688 35.6062 126.046 35.6062H125.318V39.6704ZM126.54 40.061H124.927V35.2156H126.046C126.742 35.2156 127.238 35.2719 127.562 35.3863C128.032 35.5517 128.406 35.8424 128.673 36.2512C128.937 36.6563 129.069 37.1414 129.069 37.6937C129.069 38.1715 128.964 38.6003 128.755 38.9673C128.544 39.3398 128.265 39.6177 127.925 39.7958C127.591 39.972 127.124 40.061 126.54 40.061Z" fill="#78706B"/>
<path d="M138.081 35.9269C137.787 35.9269 137.505 36.0051 137.242 36.1577C136.978 36.3121 136.77 36.521 136.622 36.779C136.473 37.0388 136.399 37.335 136.399 37.6565C136.399 38.1362 136.559 38.5286 136.891 38.8575C137.224 39.1881 137.613 39.348 138.081 39.348C138.39 39.348 138.681 39.2735 138.944 39.1227C139.208 38.9737 139.413 38.7666 139.56 38.5086C139.707 38.2507 139.782 37.9563 139.782 37.6347C139.782 37.3168 139.707 37.0261 139.56 36.7736C139.415 36.5192 139.204 36.3121 138.937 36.1577C138.668 36.0051 138.381 35.9269 138.081 35.9269ZM138.081 39.7386C137.513 39.7386 137.018 39.537 136.617 39.1354C136.212 38.7339 136.008 38.2361 136.008 37.6565C136.008 37.2659 136.101 36.9062 136.283 36.5864C136.464 36.2667 136.72 36.0087 137.046 35.8197C137.696 35.44 138.483 35.4473 139.131 35.8197C139.46 36.0087 139.718 36.263 139.9 36.5792C140.08 36.8917 140.172 37.2478 140.172 37.6347C140.172 38.0254 140.08 38.3833 139.9 38.7012C139.718 39.021 139.462 39.2772 139.139 39.4625C138.815 39.646 138.459 39.7386 138.081 39.7386ZM138.061 35.4927C137.678 35.4927 137.329 35.5872 136.998 35.778C136.67 35.9687 136.417 36.2249 136.225 36.5628C136.036 36.8971 135.939 37.2659 135.939 37.6584C135.939 38.2507 136.143 38.7412 136.564 39.1609C136.984 39.5787 137.485 39.7822 138.098 39.7822C138.701 39.7822 139.199 39.5769 139.618 39.1572C140.038 38.7376 140.242 38.2397 140.242 37.6366C140.242 37.0261 140.038 36.5283 139.618 36.1122C139.199 35.6962 138.688 35.4927 138.061 35.4927ZM138.098 40.1729C137.385 40.1729 136.777 39.9258 136.288 39.437C135.796 38.9483 135.549 38.3506 135.549 37.6584C135.549 37.1969 135.661 36.7645 135.883 36.3702C136.108 35.976 136.417 35.6617 136.802 35.44C137.189 35.2166 137.614 35.1021 138.061 35.1021C138.786 35.1021 139.402 35.3492 139.893 35.8343C140.385 36.3212 140.634 36.9262 140.634 37.6366C140.634 38.3397 140.385 38.9447 139.894 39.4334C139.406 39.9239 138.801 40.1729 138.098 40.1729Z" fill="#78706B"/>
<path d="M147.34 39.1041C147.484 39.3294 147.635 39.4947 147.789 39.5982C147.98 39.7218 148.185 39.7817 148.419 39.7817C148.721 39.7817 148.968 39.6836 149.177 39.4802C149.386 39.2785 149.488 39.0477 149.488 38.7789C149.488 38.5899 149.426 38.4064 149.302 38.2156C149.173 38.014 148.923 37.776 148.557 37.5053C148.114 37.1782 148.007 37.0856 147.962 37.0438C147.834 36.9148 147.749 36.8003 147.698 36.6859C147.647 36.5714 147.622 36.4497 147.622 36.3243C147.622 36.1136 147.702 35.9264 147.853 35.7811C148.118 35.5286 148.567 35.4922 148.915 35.6975C149.024 35.7629 149.143 35.8738 149.277 36.0318L149.331 35.9918C149.188 35.8174 149.053 35.6957 148.928 35.623C148.632 35.4559 148.272 35.4504 147.982 35.6085C147.843 35.683 147.74 35.7829 147.664 35.9119C147.589 36.0409 147.551 36.1826 147.551 36.3425C147.551 36.546 147.616 36.7313 147.749 36.9075C147.804 36.9857 147.962 37.1437 148.403 37.478C148.794 37.7723 149.057 38.0212 149.21 38.2356C149.333 38.4119 149.397 38.599 149.397 38.7879C149.397 38.9533 149.353 39.1132 149.266 39.2585C149.179 39.4075 149.053 39.5256 148.89 39.6128C148.732 39.6964 148.559 39.74 148.376 39.74C147.998 39.74 147.665 39.5165 147.384 39.0768L147.34 39.1041ZM148.419 40.1724C148.112 40.1724 147.827 40.0888 147.576 39.9253C147.331 39.7636 147.104 39.4965 146.902 39.1295L146.812 38.966L147.527 38.5372L147.625 38.7153C147.853 39.1368 148.105 39.3493 148.376 39.3493C148.496 39.3493 148.603 39.3221 148.705 39.2676C148.806 39.2149 148.879 39.1477 148.928 39.0605C148.981 38.9733 149.004 38.8842 149.004 38.7879C149.004 38.6789 148.966 38.5717 148.89 38.4609C148.763 38.281 148.521 38.0558 148.169 37.7887C147.773 37.4907 147.538 37.2836 147.435 37.1383C147.253 36.8984 147.16 36.6296 147.16 36.3425C147.16 36.1136 147.217 35.9028 147.326 35.7157C147.438 35.5249 147.595 35.3741 147.794 35.2651C148.198 35.0435 148.71 35.0489 149.123 35.2833C149.331 35.4032 149.542 35.6103 149.764 35.9119L149.876 36.0682L149.206 36.5787L149.086 36.4224C148.897 36.1717 148.779 36.0718 148.714 36.0318C148.516 35.9155 148.263 35.9301 148.123 36.0645C148.047 36.1354 148.012 36.219 148.012 36.3243C148.012 36.3952 148.027 36.4606 148.056 36.5278C148.085 36.595 148.147 36.675 148.236 36.7658C148.269 36.7967 148.394 36.9003 148.79 37.191C149.199 37.4944 149.473 37.7596 149.631 38.0031C149.795 38.2556 149.878 38.5172 149.878 38.7789C149.878 39.1549 149.733 39.4856 149.45 39.7618C149.168 40.0343 148.821 40.1724 148.419 40.1724Z" fill="#78706B"/>
<path d="M62.0709 27.242C64.0258 27.2511 65.1504 26.1465 65.1486 24.2188C65.1504 21.3628 62.6941 20.8868 60.8482 20.8904L60.8446 20.7123C62.0073 20.716 63.9877 20.3726 63.9968 17.9217C63.9877 16.1993 63.0157 15.2092 61.2097 15.211H60.2032V27.242H62.0709ZM61.2788 14.5987C63.9495 14.5987 65.4175 15.876 65.4248 17.7854C65.4175 19.4006 64.3892 20.3726 63.3136 20.6796C65.3412 20.983 66.5803 22.4692 66.5785 24.3551C66.5785 26.508 64.9778 27.936 62.1381 27.936H57.4962L57.4998 27.7453H57.7396C58.4028 27.7453 58.9405 27.2184 58.9605 26.5607V15.9704C58.9605 15.3146 58.4009 14.7877 57.736 14.7877H57.4998L57.4962 14.5987H61.2788Z" fill="#3C3835"/>
<path d="M76.4498 22.7345L74.1533 16.619L71.7569 22.7345H76.4498ZM79.4494 26.5462C79.8345 27.3946 80.5394 27.7453 81.1227 27.7453H81.2825V27.936H76.9912V27.7471H77.1602C77.6507 27.7471 78.1612 27.3129 77.8832 26.5516L76.6642 23.3068H71.5316L70.2562 26.5625C69.9873 27.3183 70.4942 27.7471 70.9848 27.7471H71.1519V27.936H67.3166V27.7453H67.4874C68.0688 27.7453 68.7719 27.3946 69.157 26.548L73.4774 16.2938C73.4774 16.2938 74.1842 14.7513 74.1842 14.3317H74.355L79.4494 26.5462Z" fill="#3C3835"/>
<path d="M87.352 14.5979C89.6612 14.5979 91.0765 15.9587 91.0765 18.1788C91.0765 20.0229 89.6721 21.8125 87.8389 21.8125C88.2477 22.0014 88.8327 22.6319 89.2015 23.1533C89.2015 23.1533 90.8458 25.4988 91.5834 26.3037C92.3501 27.1412 93.055 27.7353 94.1742 27.7444V27.9352H93.1295C91.3563 27.9352 90.4043 26.9814 89.8047 26.2655C89.5885 26.0075 87.441 22.8826 87.2939 22.6991C86.7961 22.0723 86.2419 21.4128 85.5443 21.4128V21.2366C85.5443 21.2366 85.9785 21.2456 86.5508 21.2311C87.541 21.2039 88.9835 20.9677 89.5249 19.2526C89.6103 18.9855 89.6576 18.5295 89.6467 18.1116C89.5994 16.3875 88.7019 15.2846 87.283 15.2065C86.311 15.1538 85.1573 15.2011 84.912 15.192V26.5471C84.9229 27.2121 85.4643 27.7462 86.1311 27.7462H86.3727L86.3764 27.937H82.2122L82.2159 27.7462H82.4575C83.1206 27.7462 83.6602 27.2157 83.6766 26.5562V15.9859C83.6639 15.3228 83.1224 14.7868 82.4557 14.7868H82.2159L82.2122 14.5979H87.352Z" fill="#3C3835"/>
<path d="M99.6768 14.5979C101.986 14.5979 103.401 15.9587 103.401 18.1788C103.401 20.0229 101.997 21.8125 100.164 21.8125C100.572 22.0014 101.158 22.6319 101.526 23.1533C101.526 23.1533 103.171 25.4988 103.908 26.3037C104.675 27.1412 105.38 27.7353 106.499 27.7444V27.9352H105.454C103.681 27.9352 102.729 26.9814 102.13 26.2655C101.913 26.0075 99.7658 22.8826 99.6186 22.6991C99.1208 22.0723 98.5667 21.4128 97.869 21.4128V21.2366C97.869 21.2366 98.3033 21.2456 98.8756 21.2311C99.8657 21.2039 101.31 20.9677 101.85 19.2526C101.935 18.9855 101.982 18.5295 101.971 18.1116C101.924 16.3875 101.027 15.2846 99.6077 15.2065C98.6357 15.1538 97.4839 15.2011 97.2368 15.192V26.5471C97.2477 27.2121 97.7891 27.7462 98.4559 27.7462H98.6975L98.7012 27.937H94.537L94.5406 27.7462H94.7823C95.4454 27.7462 95.985 27.2157 96.0013 26.5562V15.9859C95.9886 15.3228 95.4472 14.7868 94.7804 14.7868H94.5406L94.537 14.5979H99.6768Z" fill="#3C3835"/>
<path d="M119.002 21.2673C119.002 17.4484 116.848 14.903 113.615 14.903C110.381 14.903 108.227 17.4484 108.227 21.2673C108.227 25.0863 110.381 27.6335 113.615 27.6335C116.848 27.6335 119.002 25.0863 119.002 21.2673ZM120.463 21.2673C120.463 25.4279 117.667 28.2021 113.615 28.2021C109.564 28.2021 106.766 25.4279 106.766 21.2673C106.766 17.1068 109.564 14.3325 113.615 14.3325C117.667 14.3325 120.463 17.1068 120.463 21.2673Z" fill="#3C3835"/>
<path d="M129.387 27.633C132.619 27.633 134.775 25.0876 134.775 21.2669C134.775 17.4479 132.619 14.9025 129.387 14.9025C126.135 14.9025 123.967 17.4479 123.967 21.2669C123.967 25.0876 126.155 27.633 129.387 27.633ZM146.694 29.6315C146.249 30.8324 142.619 33.9955 137.175 31.6319C134.846 30.6235 131.732 28.6595 129.17 28.2035C125.235 28.1072 122.537 25.3547 122.537 21.2669C122.537 17.1063 125.335 14.332 129.387 14.332C133.42 14.332 136.203 17.1063 136.203 21.2669C136.203 24.8387 134.125 27.3896 131.009 28.0309C132.53 28.4887 134.744 29.3645 137.324 30.4709C140.186 31.67 144.27 31.7463 146.621 29.5371L146.694 29.6315Z" fill="#3C3835"/>
<path d="M151.058 14.5978V14.7885H150.747C150.212 14.7885 149.774 15.1628 149.741 15.6879V23.224C149.741 26.2109 147.688 28.2021 144.605 28.2021C141.434 28.2021 139.321 26.2236 139.321 23.2568V15.7315C139.311 15.1846 138.865 14.7885 138.313 14.7885H138.002V14.5978H141.874V14.7885H141.563C141.022 14.7885 140.582 15.1701 140.559 15.7042V22.977C140.559 25.7513 142.178 27.6026 144.605 27.6026C147.15 27.6026 148.847 25.8512 148.851 23.2222V15.706C148.827 15.1719 148.386 14.7885 147.844 14.7885H147.534V14.5978H151.058Z" fill="#3C3835"/>
<path d="M160.801 27.9365H152.903L152.905 27.7458H153.147C153.814 27.7458 154.355 27.2116 154.368 26.5485V15.8783C154.302 15.266 153.785 14.7882 153.152 14.7882H152.913L152.909 14.5974H158.477C159.299 14.5901 160.396 14.4012 160.748 14.2522V14.81V15.1279V16.6577L160.556 16.654V16.3161C160.556 15.7111 160.085 15.2169 159.489 15.1806H155.605V21.0726H158.824C159.335 21.0617 159.746 20.6456 159.746 20.1333V19.8517L159.933 19.8498V22.8658L159.746 22.8639V22.5823C159.746 22.0754 159.346 21.663 158.844 21.6449H155.605V27.3533H158.338C160.356 27.3533 161.132 26.3086 161.72 24.8588H161.911L160.801 27.9365Z" fill="#3C3835"/>
<path d="M172.71 24.8583L171.6 27.936H163.701L163.704 27.7453H163.946C164.611 27.7453 165.152 27.2111 165.165 26.548V15.9868C165.152 15.3236 164.611 14.7895 163.944 14.7895H163.704L163.701 14.5987H167.868L167.865 14.7895H167.625C166.958 14.7895 166.417 15.3236 166.404 15.9868V27.3528H169.136C171.155 27.3528 171.931 26.3082 172.519 24.8583H172.71Z" fill="#3C3835"/>
<path d="M186.452 21.2673C186.452 17.4484 184.297 14.903 181.065 14.903C177.831 14.903 175.676 17.4484 175.676 21.2673C175.676 25.0863 177.831 27.6335 181.065 27.6335C184.297 27.6335 186.452 25.0863 186.452 21.2673ZM187.913 21.2673C187.913 25.4279 185.117 28.2021 181.065 28.2021C177.013 28.2021 174.216 25.4279 174.216 21.2673C174.216 17.1068 177.013 14.3325 181.065 14.3325C185.117 14.3325 187.913 17.1068 187.913 21.2673Z" fill="#3C3835"/>
<path d="M207.898 14.5956V14.7882H207.731C207.15 14.7882 206.449 15.1297 206.062 15.9691L201.481 26.2414C201.481 26.2414 200.775 27.7839 200.775 28.2036H200.604L195.248 15.9836C194.864 15.1334 194.16 14.7882 193.567 14.7882H193.415V14.5956H197.706V14.7864H197.539C197.047 14.7864 196.541 15.2133 196.818 15.9746L200.811 25.958L204.955 15.9764C205.233 15.2133 204.723 14.7864 204.232 14.7864H204.063V14.5956H207.898Z" fill="#3C3835"/>
<path d="M213.012 27.936H208.843L208.846 27.7453H209.088C209.755 27.7453 210.296 27.2111 210.309 26.548V15.9777C210.292 15.3182 209.753 14.7877 209.088 14.7877H208.846L208.844 14.5969H213.012L213.009 14.7877H212.769C212.106 14.7877 211.566 15.3146 211.548 15.9741V26.548C211.561 27.2111 212.102 27.7453 212.769 27.7453H213.009L213.012 27.936Z" fill="#3C3835"/>
<path d="M223.083 22.7345L220.787 16.619L218.39 22.7345H223.083ZM226.083 26.5462C226.468 27.3946 227.173 27.7453 227.756 27.7453H227.916V27.936H223.624V27.7471H223.793C224.284 27.7471 224.794 27.3129 224.516 26.5516L223.297 23.3068H218.165L216.889 26.5625C216.621 27.3183 217.127 27.7471 217.618 27.7471H217.785V27.936H213.95V27.7453H214.121C214.702 27.7453 215.405 27.3946 215.79 26.548L220.111 16.2938C220.111 16.2938 220.817 14.7513 220.817 14.3317H220.988L226.083 26.5462Z" fill="#3C3835"/>
<path d="M242.873 14.5978L242.871 14.7885H242.519C241.881 14.7885 241.363 15.2954 241.343 15.9277V25.7712C241.343 26.9994 241.516 28.2021 241.516 28.2021H241.343L230.953 17.1195V26.607C230.973 27.2392 231.49 27.7461 232.128 27.7461H232.479L232.482 27.9369H228.558L228.56 27.7461H228.912C229.556 27.7461 230.075 27.232 230.088 26.5924V16.6926C230.088 15.3917 229.913 14.3125 229.913 14.3125H230.101L240.476 25.3933V15.944C240.464 15.3027 239.944 14.7885 239.301 14.7885H238.949L238.947 14.5978H242.873Z" fill="#3C3835"/>
<path d="M252.377 22.7345L250.08 16.619L247.684 22.7345H252.377ZM255.376 26.5462C255.761 27.3946 256.466 27.7453 257.049 27.7453H257.209V27.936H252.918V27.7471H253.087C253.578 27.7471 254.088 27.3129 253.81 26.5516L252.591 23.3068H247.458L246.183 26.5625C245.914 27.3183 246.421 27.7471 246.912 27.7471H247.079V27.936H243.243V27.7453H243.414C243.996 27.7453 244.699 27.3946 245.084 26.548L249.404 16.2938C249.404 16.2938 250.111 14.7513 250.111 14.3317H250.282L255.376 26.5462Z" fill="#3C3835"/>
</svg>
