<svg width="56" height="57" viewBox="0 0 56 57" fill="none" xmlns="http://www.w3.org/2000/svg">
<path d="M28.0003 49.9702L27.7669 49.62C26.146 47.1888 25.3356 45.9732 24.2649 45.0931C23.317 44.314 22.2248 43.7295 21.0507 43.373C19.7246 42.9702 18.2636 42.9702 15.3416 42.9702H12.1337C9.52008 42.9702 8.21329 42.9702 7.21504 42.4616C6.33695 42.0142 5.62304 41.3003 5.17563 40.4222C4.66699 39.4239 4.66699 38.1171 4.66699 35.5035V15.4369C4.66699 12.8233 4.66699 11.5165 5.17563 10.5183C5.62304 9.64017 6.33695 8.92626 7.21504 8.47885C8.21329 7.97021 9.52008 7.97021 12.1337 7.97021H13.067C18.2941 7.97021 20.9077 7.97021 22.9042 8.98749C24.6604 9.88231 26.0882 11.3101 26.9831 13.0663C28.0003 15.0628 28.0003 17.6764 28.0003 22.9035M28.0003 49.9702V22.9035M28.0003 49.9702L28.2338 49.62C29.8546 47.1888 30.665 45.9732 31.7358 45.0931C32.6837 44.314 33.7759 43.7295 34.9499 43.373C36.2761 42.9702 37.7371 42.9702 40.6591 42.9702H43.867C46.4806 42.9702 47.7874 42.9702 48.7856 42.4616C49.6637 42.0142 50.3776 41.3003 50.825 40.4222C51.3337 39.4239 51.3337 38.1171 51.3337 35.5035V15.4369C51.3337 12.8233 51.3337 11.5165 50.825 10.5183C50.3776 9.64017 49.6637 8.92626 48.7856 8.47885C47.7874 7.97021 46.4806 7.97021 43.867 7.97021H42.9337C37.7065 7.97021 35.0929 7.97021 33.0964 8.98749C31.3402 9.88231 29.9124 11.3101 29.0176 13.0663C28.0003 15.0628 28.0003 17.6764 28.0003 22.9035" stroke="#B8860B" stroke-width="2" stroke-linecap="round" stroke-linejoin="round"/>
</svg>
