<svg width="23" height="31" viewBox="0 0 23 31" fill="none" xmlns="http://www.w3.org/2000/svg">
<g clip-path="url(#clip0_3_580)">
<path d="M2.8125 0.75C1.25977 0.75 0 2.00977 0 3.5625V27.9375C0 29.4902 1.25977 30.75 2.8125 30.75H8.4375V26.0625C8.4375 24.5098 9.69727 23.25 11.25 23.25C12.8027 23.25 14.0625 24.5098 14.0625 26.0625V30.75H19.6875C21.2402 30.75 22.5 29.4902 22.5 27.9375V3.5625C22.5 2.00977 21.2402 0.75 19.6875 0.75H2.8125ZM3.75 14.8125C3.75 14.2969 4.17188 13.875 4.6875 13.875H6.5625C7.07812 13.875 7.5 14.2969 7.5 14.8125V16.6875C7.5 17.2031 7.07812 17.625 6.5625 17.625H4.6875C4.17188 17.625 3.75 17.2031 3.75 16.6875V14.8125ZM10.3125 13.875H12.1875C12.7031 13.875 13.125 14.2969 13.125 14.8125V16.6875C13.125 17.2031 12.7031 17.625 12.1875 17.625H10.3125C9.79688 17.625 9.375 17.2031 9.375 16.6875V14.8125C9.375 14.2969 9.79688 13.875 10.3125 13.875ZM15 14.8125C15 14.2969 15.4219 13.875 15.9375 13.875H17.8125C18.3281 13.875 18.75 14.2969 18.75 14.8125V16.6875C18.75 17.2031 18.3281 17.625 17.8125 17.625H15.9375C15.4219 17.625 15 17.2031 15 16.6875V14.8125ZM4.6875 6.375H6.5625C7.07812 6.375 7.5 6.79688 7.5 7.3125V9.1875C7.5 9.70312 7.07812 10.125 6.5625 10.125H4.6875C4.17188 10.125 3.75 9.70312 3.75 9.1875V7.3125C3.75 6.79688 4.17188 6.375 4.6875 6.375ZM9.375 7.3125C9.375 6.79688 9.79688 6.375 10.3125 6.375H12.1875C12.7031 6.375 13.125 6.79688 13.125 7.3125V9.1875C13.125 9.70312 12.7031 10.125 12.1875 10.125H10.3125C9.79688 10.125 9.375 9.70312 9.375 9.1875V7.3125ZM15.9375 6.375H17.8125C18.3281 6.375 18.75 6.79688 18.75 7.3125V9.1875C18.75 9.70312 18.3281 10.125 17.8125 10.125H15.9375C15.4219 10.125 15 9.70312 15 9.1875V7.3125C15 6.79688 15.4219 6.375 15.9375 6.375Z" fill="#B8860B"/>
</g>
<defs>
<clipPath id="clip0_3_580">
<path d="M0 0.75H22.5V30.75H0V0.75Z" fill="white"/>
</clipPath>
</defs>
</svg>
