<svg width="56" height="57" viewBox="0 0 56 57" fill="none" xmlns="http://www.w3.org/2000/svg">
<path d="M17.5003 26.6369H10.7337C9.42687 26.6369 8.77348 26.6369 8.27435 26.8912C7.8353 27.1149 7.47835 27.4719 7.25464 27.9109C7.00033 28.41 7.00033 29.0634 7.00033 30.3702V49.9702M38.5003 26.6369H45.267C46.5738 26.6369 47.2272 26.6369 47.7263 26.8912C48.1653 27.1149 48.5223 27.4719 48.746 27.9109C49.0003 28.41 49.0003 29.0634 49.0003 30.3702V49.9702M38.5003 49.9702V15.4369C38.5003 12.8233 38.5003 11.5165 37.9917 10.5183C37.5443 9.64017 36.8304 8.92626 35.9523 8.47885C34.954 7.97021 33.6472 7.97021 31.0337 7.97021H24.967C22.3534 7.97021 21.0466 7.97021 20.0484 8.47885C19.1703 8.92626 18.4564 9.64017 18.009 10.5183C17.5003 11.5165 17.5003 12.8233 17.5003 15.4369V49.9702M51.3337 49.9702H4.66699M25.667 17.3035H30.3337M25.667 26.6369H30.3337M25.667 35.9702H30.3337" stroke="#B8860B" stroke-width="2" stroke-linecap="round" stroke-linejoin="round"/>
</svg>
