<svg width="42" height="43" viewBox="0 0 42 43" fill="none" xmlns="http://www.w3.org/2000/svg">
<path d="M13.125 19.4443H8.05C7.06991 19.4443 6.57986 19.4443 6.20552 19.6351C5.87623 19.8029 5.60852 20.0706 5.44074 20.3999C5.25 20.7742 5.25 21.2642 5.25 22.2443V36.9443M28.875 19.4443H33.95C34.9301 19.4443 35.4201 19.4443 35.7945 19.6351C36.1238 19.8029 36.3915 20.0706 36.5593 20.3999C36.75 20.7742 36.75 21.2642 36.75 22.2443V36.9443M28.875 36.9443V11.0443C28.875 9.08415 28.875 8.10406 28.4935 7.35537C28.158 6.6968 27.6225 6.16137 26.964 5.82581C26.2153 5.44434 25.2352 5.44434 23.275 5.44434H18.725C16.7648 5.44434 15.7847 5.44434 15.036 5.82581C14.3775 6.16137 13.842 6.6968 13.5065 7.35537C13.125 8.10406 13.125 9.08415 13.125 11.0443V36.9443M38.5 36.9443H3.5M19.25 12.4443H22.75M19.25 19.4443H22.75M19.25 26.4443H22.75" stroke="#B8860B" stroke-width="2" stroke-linecap="round" stroke-linejoin="round"/>
</svg>
