<svg width="38" height="31" viewBox="0 0 38 31" fill="none" xmlns="http://www.w3.org/2000/svg">
<g clip-path="url(#clip0_3_637)">
<path d="M8.76562 0.75C10.0088 0.75 11.2011 1.24386 12.0802 2.12294C12.9593 3.00201 13.4531 4.1943 13.4531 5.4375C13.4531 6.6807 12.9593 7.87299 12.0802 8.75206C11.2011 9.63114 10.0088 10.125 8.76562 10.125C7.52242 10.125 6.33014 9.63114 5.45106 8.75206C4.57199 7.87299 4.07812 6.6807 4.07812 5.4375C4.07812 4.1943 4.57199 3.00201 5.45106 2.12294C6.33014 1.24386 7.52242 0.75 8.76562 0.75ZM30.3281 0.75C31.5713 0.75 32.7636 1.24386 33.6427 2.12294C34.5218 3.00201 35.0156 4.1943 35.0156 5.4375C35.0156 6.6807 34.5218 7.87299 33.6427 8.75206C32.7636 9.63114 31.5713 10.125 30.3281 10.125C29.0849 10.125 27.8926 9.63114 27.0136 8.75206C26.1345 7.87299 25.6406 6.6807 25.6406 5.4375C25.6406 4.1943 26.1345 3.00201 27.0136 2.12294C27.8926 1.24386 29.0849 0.75 30.3281 0.75ZM0.328125 18.252C0.328125 14.8008 3.12891 12 6.58008 12H9.08203C10.0137 12 10.8984 12.2051 11.6953 12.5684C11.6191 12.9902 11.584 13.4297 11.584 13.875C11.584 16.1133 12.5684 18.123 14.1211 19.5C14.1094 19.5 14.0977 19.5 14.0801 19.5H1.57617C0.890625 19.5 0.328125 18.9375 0.328125 18.252ZM24.0762 19.5C24.0645 19.5 24.0527 19.5 24.0352 19.5C25.5938 18.123 26.5723 16.1133 26.5723 13.875C26.5723 13.4297 26.5312 12.9961 26.4609 12.5684C27.2578 12.1992 28.1426 12 29.0742 12H31.5762C35.0273 12 37.8281 14.8008 37.8281 18.252C37.8281 18.9434 37.2656 19.5 36.5801 19.5H24.0762ZM13.4531 13.875C13.4531 12.3832 14.0458 10.9524 15.1006 9.89752C16.1555 8.84263 17.5863 8.25 19.0781 8.25C20.57 8.25 22.0007 8.84263 23.0556 9.89752C24.1105 10.9524 24.7031 12.3832 24.7031 13.875C24.7031 15.3668 24.1105 16.7976 23.0556 17.8525C22.0007 18.9074 20.57 19.5 19.0781 19.5C17.5863 19.5 16.1555 18.9074 15.1006 17.8525C14.0458 16.7976 13.4531 15.3668 13.4531 13.875ZM7.82812 29.1855C7.82812 24.873 11.3262 21.375 15.6387 21.375H22.5176C26.8301 21.375 30.3281 24.873 30.3281 29.1855C30.3281 30.0469 29.6309 30.75 28.7637 30.75H9.39258C8.53125 30.75 7.82812 30.0527 7.82812 29.1855Z" fill="#B8860B"/>
</g>
<defs>
<clipPath id="clip0_3_637">
<path d="M0.328125 0.75H37.8281V30.75H0.328125V0.75Z" fill="white"/>
</clipPath>
</defs>
</svg>
