<svg width="24" height="31" viewBox="0 0 24 31" fill="none" xmlns="http://www.w3.org/2000/svg">
<g clip-path="url(#clip0_3_591)">
<path d="M4.40625 0.75C2.33789 0.75 0.65625 2.43164 0.65625 4.5V27C0.65625 29.0684 2.33789 30.75 4.40625 30.75H19.4062C21.4746 30.75 23.1562 29.0684 23.1562 27V10.125H15.6562C14.6191 10.125 13.7812 9.28711 13.7812 8.25V0.75H4.40625ZM15.6562 0.75V8.25H23.1562L15.6562 0.75ZM5.34375 4.5H9.09375C9.60938 4.5 10.0312 4.92188 10.0312 5.4375C10.0312 5.95312 9.60938 6.375 9.09375 6.375H5.34375C4.82812 6.375 4.40625 5.95312 4.40625 5.4375C4.40625 4.92188 4.82812 4.5 5.34375 4.5ZM5.34375 8.25H9.09375C9.60938 8.25 10.0312 8.67188 10.0312 9.1875C10.0312 9.70312 9.60938 10.125 9.09375 10.125H5.34375C4.82812 10.125 4.40625 9.70312 4.40625 9.1875C4.40625 8.67188 4.82812 8.25 5.34375 8.25ZM8.51953 23.1211C8.16211 24.3105 7.06641 25.125 5.82422 25.125H5.34375C4.82812 25.125 4.40625 24.7031 4.40625 24.1875C4.40625 23.6719 4.82812 23.25 5.34375 23.25H5.82422C6.24023 23.25 6.60352 22.9805 6.7207 22.582L7.59375 19.6816C7.79297 19.0195 8.40234 18.5625 9.09375 18.5625C9.78516 18.5625 10.3945 19.0137 10.5938 19.6816L11.2734 21.9434C11.707 21.5801 12.2578 21.375 12.8438 21.375C13.7754 21.375 14.625 21.9023 15.041 22.7344L15.2988 23.25H18.4688C18.9844 23.25 19.4062 23.6719 19.4062 24.1875C19.4062 24.7031 18.9844 25.125 18.4688 25.125H14.7188C14.3613 25.125 14.0391 24.9258 13.8809 24.6094L13.3652 23.5723C13.2656 23.373 13.0664 23.25 12.8496 23.25C12.6328 23.25 12.4277 23.373 12.334 23.5723L11.8184 24.6094C11.6484 24.9551 11.2793 25.1602 10.8984 25.125C10.5176 25.0898 10.1895 24.8262 10.084 24.4629L9.09375 21.1992L8.51953 23.1211Z" fill="#B8860B"/>
</g>
<defs>
<clipPath id="clip0_3_591">
<path d="M0.65625 0.75H23.1562V30.75H0.65625V0.75Z" fill="white"/>
</clipPath>
</defs>
</svg>
