<svg width="32" height="33" viewBox="0 0 32 33" fill="none" xmlns="http://www.w3.org/2000/svg">
<path d="M22.667 20.3036V16.2961C22.667 16.0568 22.667 15.9372 22.6306 15.8315C22.5983 15.7381 22.5457 15.653 22.4766 15.5824C22.3984 15.5026 22.2914 15.4491 22.0774 15.3421L16.0003 12.3036M5.33366 13.6369V22.7124C5.33366 23.2083 5.33366 23.4562 5.41102 23.6733C5.4794 23.8652 5.59086 24.0389 5.73683 24.181C5.90195 24.3418 6.12736 24.4451 6.57813 24.6517L15.1115 28.5628C15.4384 28.7127 15.6019 28.7876 15.7722 28.8172C15.9232 28.8434 16.0775 28.8434 16.2284 28.8172C16.3987 28.7876 16.5622 28.7127 16.8892 28.5628L25.4225 24.6517C25.8733 24.4451 26.0987 24.3418 26.2638 24.181C26.4098 24.0389 26.5212 23.8652 26.5896 23.6733C26.667 23.4562 26.667 23.2083 26.667 22.7124V13.6369M2.66699 12.3036L15.5233 5.8754C15.6982 5.78795 15.7857 5.74422 15.8774 5.72701C15.9586 5.71177 16.042 5.71177 16.1233 5.72701C16.215 5.74422 16.3024 5.78795 16.4774 5.8754L29.3337 12.3036L16.4774 18.7317C16.3024 18.8192 16.215 18.8629 16.1233 18.8801C16.042 18.8953 15.9586 18.8953 15.8774 18.8801C15.7857 18.8629 15.6982 18.8192 15.5233 18.7317L2.66699 12.3036Z" stroke="#B8860B" stroke-width="2" stroke-linecap="round" stroke-linejoin="round"/>
</svg>
