<svg width="31" height="31" viewBox="0 0 31 31" fill="none" xmlns="http://www.w3.org/2000/svg">
<g clip-path="url(#clip0_3_604)">
<path d="M18.9961 1.30078C18.2637 0.568359 17.0742 0.568359 16.3418 1.30078L9.31055 8.33203C8.57812 9.06445 8.57812 10.2539 9.31055 10.9863L10.248 11.9238C10.9805 12.6562 12.1699 12.6562 12.9023 11.9238L13.1367 11.6895L19.3945 17.9414L19.1602 18.1758C18.4277 18.9082 18.4277 20.0977 19.1602 20.8301L20.0977 21.7676C20.8301 22.5 22.0195 22.5 22.752 21.7676L29.7832 14.7363C30.5156 14.0039 30.5156 12.8145 29.7832 12.082L28.8457 11.1445C28.1133 10.4121 26.9238 10.4121 26.1914 11.1445L25.957 11.3789L19.6992 5.12109L19.9336 4.88672C20.666 4.1543 20.666 2.96484 19.9336 2.23242L18.9961 1.29492V1.30078ZM10.0898 18.1758C9.35742 17.4434 8.16797 17.4434 7.43555 18.1758L0.873047 24.7383C0.140625 25.4707 0.140625 26.6602 0.873047 27.3926L3.68555 30.2051C4.41797 30.9375 5.60742 30.9375 6.33984 30.2051L12.9023 23.6426C13.6348 22.9102 13.6348 21.7207 12.9023 20.9883L12.8203 20.9062L16.2656 17.4668L13.6113 14.8125L10.1719 18.252L10.0898 18.1699V18.1758Z" fill="#B8860B"/>
</g>
<defs>
<clipPath id="clip0_3_604">
<path d="M0.328125 0.75H30.3281V30.75H0.328125V0.75Z" fill="white"/>
</clipPath>
</defs>
</svg>
