<svg width="38" height="31" viewBox="0 0 38 31" fill="none" xmlns="http://www.w3.org/2000/svg">
<g clip-path="url(#clip0_3_615)">
<path d="M18.9492 5.74219L13.2773 10.3359C12.334 11.0977 12.1523 12.4688 12.8672 13.4473C13.623 14.4902 15.0938 14.6953 16.1074 13.9043L21.9258 9.38086C22.3359 9.06445 22.9219 9.13477 23.2441 9.54492C23.5664 9.95508 23.4902 10.541 23.0801 10.8633L21.8555 11.8125L30 19.3125V8.25H29.959L29.7305 8.10352L25.4766 5.37891C24.5801 4.80469 23.5312 4.5 22.4648 4.5C21.1875 4.5 19.9453 4.93945 18.9492 5.74219ZM20.2852 13.0313L17.2559 15.3867C15.4102 16.8281 12.7324 16.4531 11.3496 14.5547C10.0488 12.7676 10.377 10.2715 12.0938 8.88281L16.9688 4.93945C16.2891 4.65234 15.5566 4.50586 14.8125 4.50586C13.7109 4.5 12.6387 4.82813 11.7188 5.4375L7.5 8.25V21.375H9.15234L14.5078 26.2617C15.6562 27.3105 17.4316 27.2285 18.4805 26.0801C18.8027 25.7227 19.0195 25.3066 19.1309 24.873L20.127 25.7871C21.2695 26.8359 23.0508 26.7598 24.0996 25.6172C24.3633 25.3301 24.5566 24.9961 24.6797 24.6504C25.8164 25.4121 27.3633 25.2539 28.3184 24.2109C29.3672 23.0684 29.291 21.2871 28.1484 20.2383L20.2852 13.0313ZM0.9375 8.25C0.421875 8.25 0 8.67188 0 9.1875V21.375C0 22.4121 0.837891 23.25 1.875 23.25H3.75C4.78711 23.25 5.625 22.4121 5.625 21.375V8.25H0.9375ZM2.8125 19.5C3.06114 19.5 3.2996 19.5988 3.47541 19.7746C3.65123 19.9504 3.75 20.1889 3.75 20.4375C3.75 20.6861 3.65123 20.9246 3.47541 21.1004C3.2996 21.2762 3.06114 21.375 2.8125 21.375C2.56386 21.375 2.3254 21.2762 2.14959 21.1004C1.97377 20.9246 1.875 20.6861 1.875 20.4375C1.875 20.1889 1.97377 19.9504 2.14959 19.7746C2.3254 19.5988 2.56386 19.5 2.8125 19.5ZM31.875 8.25V21.375C31.875 22.4121 32.7129 23.25 33.75 23.25H35.625C36.6621 23.25 37.5 22.4121 37.5 21.375V9.1875C37.5 8.67188 37.0781 8.25 36.5625 8.25H31.875ZM33.75 20.4375C33.75 20.1889 33.8488 19.9504 34.0246 19.7746C34.2004 19.5988 34.4389 19.5 34.6875 19.5C34.9361 19.5 35.1746 19.5988 35.3504 19.7746C35.5262 19.9504 35.625 20.1889 35.625 20.4375C35.625 20.6861 35.5262 20.9246 35.3504 21.1004C35.1746 21.2762 34.9361 21.375 34.6875 21.375C34.4389 21.375 34.2004 21.2762 34.0246 21.1004C33.8488 20.9246 33.75 20.6861 33.75 20.4375Z" fill="#B8860B"/>
</g>
<defs>
<clipPath id="clip0_3_615">
<path d="M0 0.75H37.5V30.75H0V0.75Z" fill="white"/>
</clipPath>
</defs>
</svg>
