<svg width="56" height="57" viewBox="0 0 56 57" fill="none" xmlns="http://www.w3.org/2000/svg">
<g clip-path="url(#clip0_47_107)">
<path d="M12.6179 16.8962C12.733 15.9936 12.7444 15.2748 12.6179 14.8183C12.1707 13.5763 2.42922 12.3837 1.13808 12.6322C1.13817 15.2162 0.708301 26.6289 1.13868 33.5527H7.69746C8.0631 32.5779 8.49134 31.3961 8.94075 30.1028M12.6179 16.8962H23.9464M12.6179 16.8962C12.2046 20.1383 10.4528 25.7515 8.94075 30.1028M8.94075 30.1028C14.5681 36.5659 23.9464 50.9255 28.7907 44.6546M23.9464 37.6472L28.003 42.8233C29.8625 45.1959 33.6218 44.5009 34.5101 41.6203V41.6203" stroke="#B8860B" stroke-width="2" stroke-linecap="round" stroke-linejoin="round"/>
<path d="M28.8584 35.4634L33.2879 40.4097C35.2095 42.5554 38.6775 42.1462 40.0469 39.6122V39.6122M32.0255 31.7292L38.9659 38.6696C39.9436 39.6473 41.5088 39.7085 42.5598 38.8101L43.3042 38.1738C44.1335 37.465 44.1448 36.1868 43.3282 35.4634V35.4634M41.1041 19.3591C39.5533 19.2041 32.8229 15.9474 29.2418 15.1985C24.7642 15.0766 19.3635 20.027 18.6582 23.2624C18.626 23.4101 18.5938 23.5564 18.5477 23.7004V23.7004C17.7097 26.3171 20.549 28.3517 22.5913 26.5136C23.5041 25.6921 24.4498 24.7918 25.3894 23.823C26.4458 23.9658 28.5399 23.5561 29.2418 22.9851L43.3282 35.4634M43.3282 35.4634L46.5 33.4091M40.6979 17.236L48.1297 35.887H54.7035L55.0092 15.1985C52.8914 14.9094 47.0642 14.9122 40.6979 17.236Z" stroke="#B8860B" stroke-width="2" stroke-linecap="round" stroke-linejoin="round"/>
</g>
<defs>
<clipPath id="clip0_47_107">
<rect width="56" height="56" fill="white" transform="translate(0 0.970215)"/>
</clipPath>
</defs>
</svg>
