<svg width="35" height="31" viewBox="0 0 35 31" fill="none" xmlns="http://www.w3.org/2000/svg">
<g clip-path="url(#clip0_3_626)">
<path d="M34.3945 15.7207C34.3945 16.7754 33.5156 17.6016 32.5195 17.6016H30.6445L30.6855 26.9883C30.6973 29.0684 29.0156 30.7559 26.9355 30.7559H8.16211C6.09375 30.7559 4.41211 29.0742 4.41211 27.0059V17.6016H2.53125C1.47656 17.6016 0.65625 16.7812 0.65625 15.7207C0.65625 15.1934 0.832031 14.7246 1.24219 14.3145L16.2656 1.21875C16.6758 0.808594 17.1445 0.75 17.5547 0.75C17.9648 0.75 18.4336 0.867188 18.7852 1.16016L33.75 14.3145C34.2188 14.7246 34.4531 15.1934 34.3945 15.7207ZM21.2812 13.875C21.2812 12.8804 20.8862 11.9266 20.1829 11.2233C19.4796 10.5201 18.5258 10.125 17.5312 10.125C16.5367 10.125 15.5829 10.5201 14.8796 11.2233C14.1763 11.9266 13.7812 12.8804 13.7812 13.875C13.7812 14.8696 14.1763 15.8234 14.8796 16.5266C15.5829 17.2299 16.5367 17.625 17.5312 17.625C18.5258 17.625 19.4796 17.2299 20.1829 16.5266C20.8862 15.8234 21.2812 14.8696 21.2812 13.875ZM15.6562 19.5C13.0664 19.5 10.9688 21.5977 10.9688 24.1875C10.9688 24.7031 11.3906 25.125 11.9062 25.125H23.1562C23.6719 25.125 24.0938 24.7031 24.0938 24.1875C24.0938 21.5977 21.9961 19.5 19.4062 19.5H15.6562Z" fill="#B8860B"/>
</g>
<defs>
<clipPath id="clip0_3_626">
<path d="M0.65625 0.75H34.4062V30.75H0.65625V0.75Z" fill="white"/>
</clipPath>
</defs>
</svg>
