<svg width="42" height="43" viewBox="0 0 42 43" fill="none" xmlns="http://www.w3.org/2000/svg">
<path d="M15.75 36.9443V23.9943C15.75 23.0142 15.75 22.5242 15.9407 22.1499C16.1085 21.8206 16.3762 21.5529 16.7055 21.3851C17.0799 21.1943 17.5699 21.1943 18.55 21.1943H23.45C24.4301 21.1943 24.9201 21.1943 25.2945 21.3851C25.6238 21.5529 25.8915 21.8206 26.0593 22.1499C26.25 22.5242 26.25 23.0142 26.25 23.9943V36.9443M3.49999 16.8193L19.32 4.95434C19.9225 4.5025 20.2237 4.27658 20.5545 4.18949C20.8465 4.11262 21.1535 4.11262 21.4455 4.18949C21.7763 4.27658 22.0775 4.5025 22.68 4.95434L38.5 16.8193M7 14.1943V31.3443C7 33.3045 7 34.2846 7.38148 35.0333C7.71703 35.6919 8.25247 36.2273 8.91103 36.5629C9.65972 36.9443 10.6398 36.9443 12.6 36.9443H29.4C31.3602 36.9443 32.3403 36.9443 33.089 36.5629C33.7475 36.2273 34.283 35.6919 34.6185 35.0333C35 34.2846 35 33.3045 35 31.3443V14.1943L24.36 6.21434C23.1551 5.31066 22.5526 4.85882 21.891 4.68464C21.3069 4.5309 20.6931 4.5309 20.109 4.68464C19.4474 4.85882 18.8449 5.31066 17.64 6.21434L7 14.1943Z" stroke="#B8860B" stroke-width="2" stroke-linecap="round" stroke-linejoin="round"/>
</svg>
