<svg width="56" height="57" viewBox="0 0 56 57" fill="none" xmlns="http://www.w3.org/2000/svg">
<path d="M21.0003 49.9702V32.7035C21.0003 31.3968 21.0003 30.7434 21.2547 30.2442C21.4784 29.8052 21.8353 29.4482 22.2744 29.2245C22.7735 28.9702 23.4269 28.9702 24.7337 28.9702H31.267C32.5738 28.9702 33.2272 28.9702 33.7263 29.2245C34.1654 29.4482 34.5223 29.8052 34.746 30.2442C35.0003 30.7434 35.0003 31.3968 35.0003 32.7035V49.9702M4.66699 23.1369L25.7603 7.31688C26.5636 6.71443 26.9652 6.4132 27.4063 6.29709C27.7957 6.19459 28.205 6.19459 28.5943 6.29709C29.0354 6.4132 29.4371 6.71443 30.2403 7.31688L51.3337 23.1369M9.33367 19.6369V42.5035C9.33367 45.1171 9.33367 46.4239 9.8423 47.4222C10.2897 48.3003 11.0036 49.0142 11.8817 49.4616C12.88 49.9702 14.1868 49.9702 16.8003 49.9702H39.2003C41.8139 49.9702 43.1207 49.9702 44.119 49.4616C44.997 49.0142 45.711 48.3003 46.1584 47.4222C46.667 46.4239 46.667 45.1171 46.667 42.5035V19.6369L32.4803 8.99688C30.8738 7.79198 30.0705 7.18952 29.1883 6.95729C28.4096 6.7523 27.5911 6.7523 26.8124 6.95729C25.9301 7.18952 25.1269 7.79198 23.5203 8.99688L9.33367 19.6369Z" stroke="#B8860B" stroke-width="2" stroke-linecap="round" stroke-linejoin="round"/>
</svg>
