<svg width="24" height="25" viewBox="0 0 24 25" fill="none" xmlns="http://www.w3.org/2000/svg">
<path d="M2 7.97021L7.19384 11.4328C7.49349 11.6325 7.64331 11.7324 7.8054 11.8032C7.94927 11.866 8.10003 11.9116 8.25458 11.9392C8.42869 11.9702 8.60876 11.9702 8.96888 11.9702H15.0311C15.3912 11.9702 15.5713 11.9702 15.7454 11.9392C15.9 11.9116 16.0507 11.866 16.1946 11.8032C16.3567 11.7324 16.5065 11.6325 16.8062 11.4328L22 7.97021M6.8 20.9702H17.2C18.8802 20.9702 19.7202 20.9702 20.362 20.6432C20.9265 20.3556 21.3854 19.8967 21.673 19.3322C22 18.6905 22 17.8504 22 16.1702V9.77022C22 8.09006 22 7.24998 21.673 6.60824C21.3854 6.04376 20.9265 5.58482 20.362 5.2972C19.7202 4.97021 18.8802 4.97021 17.2 4.97021H6.8C5.11984 4.97021 4.27976 4.97021 3.63803 5.2972C3.07354 5.58482 2.6146 6.04376 2.32698 6.60824C2 7.24998 2 8.09006 2 9.77022V16.1702C2 17.8504 2 18.6905 2.32698 19.3322C2.6146 19.8967 3.07354 20.3556 3.63803 20.6432C4.27976 20.9702 5.11984 20.9702 6.8 20.9702Z" stroke="#F6F2EF" stroke-linecap="round" stroke-linejoin="round"/>
</svg>
