<svg width="24" height="25" viewBox="0 0 24 25" fill="none" xmlns="http://www.w3.org/2000/svg">
<path d="M14.0497 6.97021C15.0264 7.16078 15.924 7.63847 16.6277 8.34215C17.3314 9.04583 17.8091 9.94348 17.9997 10.9202M14.0497 2.97021C16.0789 3.19565 17.9713 4.10439 19.4159 5.54722C20.8606 6.99006 21.7717 8.88122 21.9997 10.9102M10.2266 14.8333C9.02506 13.6317 8.07627 12.2731 7.38028 10.8234C7.32041 10.6988 7.29048 10.6364 7.26748 10.5575C7.18576 10.2772 7.24446 9.93291 7.41447 9.69548C7.46231 9.62866 7.51947 9.57151 7.63378 9.4572C7.98338 9.10759 8.15819 8.93279 8.27247 8.75701C8.70347 8.09412 8.70347 7.23954 8.27247 6.57665C8.15819 6.40087 7.98338 6.22607 7.63378 5.87646L7.43891 5.68159C6.90747 5.15015 6.64174 4.88443 6.35636 4.74008C5.7888 4.45301 5.11854 4.45301 4.55098 4.74008C4.2656 4.88443 3.99987 5.15015 3.46843 5.68159L3.3108 5.83922C2.78117 6.36885 2.51636 6.63366 2.31411 6.99369C2.08969 7.3932 1.92833 8.01369 1.9297 8.47191C1.93092 8.88486 2.01103 9.16708 2.17124 9.73153C3.03221 12.7649 4.65668 15.6273 7.04466 18.0153C9.43264 20.4032 12.295 22.0277 15.3284 22.8887C15.8928 23.0489 16.1751 23.129 16.588 23.1302C17.0462 23.1316 17.6667 22.9702 18.0662 22.7458C18.4263 22.5436 18.6911 22.2787 19.2207 21.7491L19.3783 21.5915C19.9098 21.06 20.1755 20.7943 20.3198 20.5089C20.6069 19.9414 20.6069 19.2711 20.3198 18.7036C20.1755 18.4182 19.9098 18.1525 19.3783 17.621L19.1835 17.4261C18.8339 17.0765 18.6591 16.9017 18.4833 16.7875C17.8204 16.3565 16.9658 16.3565 16.3029 16.7875C16.1271 16.9017 15.9523 17.0765 15.6027 17.4261C15.4884 17.5405 15.4313 17.5976 15.3644 17.6455C15.127 17.8155 14.7828 17.8742 14.5024 17.7924C14.4235 17.7694 14.3612 17.7395 14.2365 17.6796C12.7869 16.9836 11.4282 16.0349 10.2266 14.8333Z" stroke="#F6F2EF" stroke-linecap="round" stroke-linejoin="round"/>
</svg>
