<svg width="32" height="33" viewBox="0 0 32 33" fill="none" xmlns="http://www.w3.org/2000/svg">
<path d="M3.33364 18.3035H11.3336M20.667 18.3035H28.667M16.0003 10.3035V28.9702M16.0003 10.3035C17.8413 10.3035 19.3336 8.81112 19.3336 6.97017M16.0003 10.3035C14.1594 10.3035 12.667 8.81112 12.667 6.97017M5.33364 28.9702L26.667 28.9702M5.33364 6.97018L12.667 6.97017M12.667 6.97017C12.667 5.12923 14.1594 3.63684 16.0003 3.63684C17.8413 3.63684 19.3336 5.12922 19.3336 6.97017M19.3336 6.97017L26.667 6.97017M11.8409 20.0853C11.3066 22.1309 9.49111 23.6368 7.33364 23.6368C5.17617 23.6368 3.36065 22.1309 2.82639 20.0853C2.78274 19.9182 2.76091 19.8346 2.75881 19.5007C2.75752 19.296 2.83359 18.824 2.89913 18.6301C3.00605 18.3137 3.12178 18.1351 3.35325 17.778L7.33364 11.6368L11.314 17.778C11.5455 18.1351 11.6612 18.3137 11.7682 18.6301C11.8337 18.824 11.9098 19.296 11.9085 19.5007C11.9064 19.8346 11.8845 19.9182 11.8409 20.0853ZM29.1742 20.0853C28.64 22.1309 26.8244 23.6368 24.667 23.6368C22.5095 23.6368 20.694 22.1309 20.1597 20.0853C20.1161 19.9182 20.0942 19.8346 20.0921 19.5007C20.0908 19.296 20.1669 18.824 20.2325 18.6301C20.3394 18.3137 20.4551 18.1351 20.6866 17.778L24.667 11.6368L28.6474 17.778C28.8788 18.1351 28.9946 18.3137 29.1015 18.6301C29.167 18.824 29.2431 19.296 29.2418 19.5007C29.2397 19.8346 29.2179 19.9182 29.1742 20.0853Z" stroke="#B8860B" stroke-width="2" stroke-linecap="round" stroke-linejoin="round"/>
</svg>
