<svg width="56" height="57" viewBox="0 0 56 57" fill="none" xmlns="http://www.w3.org/2000/svg">
<path d="M37.3337 9.06165C40.791 10.7798 43.167 14.3475 43.167 18.4702C43.167 22.5929 40.791 26.1606 37.3337 27.8788M42.0003 40.0918C45.5271 41.6877 48.7029 44.2885 51.3337 47.6369M4.66699 47.6369C9.2088 41.8562 15.3751 38.3036 22.167 38.3036C28.9589 38.3036 35.1252 41.8562 39.667 47.6369M32.667 18.4702C32.667 24.2692 27.966 28.9702 22.167 28.9702C16.368 28.9702 11.667 24.2692 11.667 18.4702C11.667 12.6712 16.368 7.97021 22.167 7.97021C27.966 7.97021 32.667 12.6712 32.667 18.4702Z" stroke="#B8860B" stroke-width="2" stroke-linecap="round" stroke-linejoin="round"/>
</svg>
