<svg width="43" height="43" viewBox="0 0 43 43" fill="none" xmlns="http://www.w3.org/2000/svg">
<path d="M39.5073 0.998707C39.2206 0.998707 38.9886 1.23071 38.9886 1.51738V37.98L28.1953 1.37071C28.13 1.15071 27.9273 0.998707 27.698 0.998707H3.2993C3.0113 0.998707 2.7793 1.23071 2.7793 1.51738V3.09737V4.07871V4.13471H5.10863H5.96996H6.1473H6.93663H18.0486C22.8433 4.13471 26.7446 8.03604 26.7446 12.8307C26.7446 17.6227 22.846 21.5227 18.054 21.5254H7.92063C7.63396 21.5254 7.40196 21.7574 7.40196 22.044C7.40196 22.3307 7.63396 22.564 7.92063 22.564H18.0473C18.0486 22.564 18.0526 22.564 18.054 22.564H21.086C26.1846 22.564 30.334 26.712 30.334 31.8107C30.334 36.9094 26.1846 41.0574 21.086 41.0574C20.7993 41.0574 20.5673 41.2907 20.5673 41.5774C20.5673 41.864 20.7993 42.096 21.086 42.096C26.758 42.096 31.3713 37.4827 31.3713 31.8107C31.3713 26.5347 27.3753 22.1774 22.2513 21.596C25.518 20.024 27.782 16.6907 27.782 12.8307C27.782 7.46271 23.4166 3.09737 18.0486 3.09737H5.96996H5.6273H3.81796V2.03737H27.3086L39.01 41.724C39.0753 41.9467 39.2806 42.096 39.5073 42.096C39.5313 42.096 39.5566 42.0947 39.5806 42.0907C39.8366 42.0547 40.026 41.8347 40.026 41.5774V1.51738C40.026 1.23071 39.794 0.998707 39.5073 0.998707Z" fill="#FFFFFF"/>
</svg>
